<svg xmlns="http://www.w3.org/2000/svg" xmlns:xlink="http://www.w3.org/1999/xlink" xmlns:inkscape="http://www.inkscape.org/namespaces/inkscape" version="1.1" width="1296" height="288" viewBox="0 0 1296 288">
<title>Sustainacert Logo</title>
<desc>Wordmark and emblem for Sustainacert.</desc>
<defs>
<clipPath id="clip_0">
<path transform="matrix(1,0,0,-1,0,288)" d="M0 288H1296V0H0Z"/>
</clipPath>
</defs>
<g inkscape:groupmode="layer" inkscape:label="Layer 1">
<g clip-path="url(#clip_0)">
<path transform="matrix(1,0,0,-1,327.1867,182.052)" d="M0 0 .007 .021H.003C.003 .014 0 .007 0 0" fill="#0a3468"/>
<path transform="matrix(1,0,0,-1,301.6051,169.3717)" d="M0 0C1.5 9.45 2.263 19.358 2.263 29.514 2.263 34.707 2.047 39.971 1.628 45.193 12.937 48.542 22.82 53.09 30.486 58.464 33.944 49.219 35.693 39.493 35.693 29.503 35.686 18.106 22.107 6.96 0 0M27.041-7.336C26.57-8.283 26.094-9.227 25.587-10.149V-10.153C25.434-10.429 25.275-10.706 25.115-10.979L24.807-11.504 24.697-11.703C24.303-12.391 23.913-13.079 23.501-13.753 23.327-14.037 23.143-14.314 22.962-14.594L22.511-15.293C22.086-15.956 21.664-16.619 21.22-17.265L20.397-18.418C19.844-19.195 19.287-19.972 18.712-20.727L18.077-21.532C17.382-22.423 16.669-23.303 15.931-24.168 15.651-24.498 15.367-24.824 15.073-25.161 14.391-25.942 13.689-26.704 12.965-27.471 12.65-27.808 12.338-28.141 12.011-28.475 11.281-29.227 10.528-29.954 9.773-30.674L8.84-31.564C7.896-32.43 6.931-33.278 5.949-34.101L5.534-34.459C4.409-35.392 3.253-36.297 2.079-37.169L1.078-37.879C.23-38.496-.628-39.095-1.494-39.674-1.845-39.908-2.2-40.131-2.554-40.355L-2.877-40.56C-3.654-41.057-4.434-41.539-5.222-42.008-5.725-42.306-6.236-42.593-6.744-42.884-7.528-43.324-8.322-43.749-9.117-44.165L-9.365-44.296C-9.798-44.519-10.231-44.743-10.671-44.963-11.518-45.385-12.384-45.782-13.25-46.172L-13.796-46.424C-14.09-46.559-14.385-46.694-14.683-46.821-15.573-47.205-16.47-47.57-17.379-47.921-11.362-39.234-6.478-27.943-3.069-14.764 10.103-11.359 21.387-6.477 30.071-.465 29.163-2.806 28.152-5.101 27.041-7.336M-47.35-53.526C-58.748-53.526-69.897-39.947-76.861-17.836-67.414-19.337-57.506-20.096-47.35-20.096-37.19-20.096-27.283-19.337-17.836-17.836-24.8-39.947-35.949-53.526-47.35-53.526M-78.173-47.57-79.283-47.134C-80.174-46.761-81.046-46.36-81.919-45.963L-83.107-45.42C-84.033-44.977-84.941-44.502-85.846-44.026L-86.804-43.54C-88.013-42.884-89.209-42.199-90.383-41.483-106.169-31.877-118.18-17.488-124.771-.465-116.087-6.477-104.803-11.359-91.628-14.764-88.223-27.939-83.341-39.219-77.325-47.907-77.609-47.797-77.893-47.683-78.173-47.57M-130.39 29.514C-130.39 39.493-128.641 49.216-125.182 58.464-117.517 53.09-107.634 48.542-96.325 45.193-96.747 39.968-96.96 34.704-96.96 29.514-96.96 19.361-96.197 9.454-94.697 0-116.804 6.96-130.383 18.106-130.39 29.5ZM-83.235 41.983C-71.855 39.709-59.798 38.556-47.35 38.556-34.899 38.556-22.841 39.709-11.462 41.983-11.167 37.797-11.015 33.615-11.015 29.514-11.015 18.113-12.093 6.974-14.218-3.618-24.81-5.743-35.949-6.818-47.35-6.818-58.744-6.818-69.883-5.743-80.479-3.618-82.604 6.974-83.682 18.113-83.682 29.514-83.682 33.615-83.53 37.797-83.235 41.983M36.69 76.481C27.52 69.957 16.828 64.501 5.019 60.394 3.402 59.801 1.862 59.333 .149 58.794 .142 58.819 .032 58.733 .028 58.762-4.175 57.467-8.5 56.339-12.941 55.392-12.937 55.363-13.104 55.363-13.101 55.335-14.633 55.012-16.031 54.739-17.588 54.462-17.638 54.452-17.691 54.445-17.74 54.434-19.553 54.115-21.369 53.806-23.207 53.547-24.452 53.366-25.718 53.217-26.978 53.065-28.553 52.88-30.131 52.703-31.728 52.561-33.569 52.391-35.424 52.252-37.293 52.142-38.003 52.103-38.712 52.061-39.425 52.029-41.976 51.912-44.544 51.834-47.137 51.834H-47.262-47.35C-47.531 51.834-47.708 51.844-47.893 51.844-50.103 51.855-52.299 51.915-54.48 52.008-55.818 52.061-57.148 52.139-58.475 52.224-59.081 52.263-59.681 52.313-60.28 52.359-67.623 52.898-74.101 53.792-81.096 55.317-81.089 55.371-81.749 55.417-81.742 55.473-86.183 56.431-90.5 57.581-94.7 58.886-94.711 58.815-95.044 59.035-95.058 58.968-99.113 60.245-102.572 61.394-106.059 62.951-115.331 66.726-123.81 71.355-131.263 76.701-132.66 74.235-133.962 71.727-135.09 69.223-140.784 56.704-143.668 43.345-143.668 29.5-143.661 2.355-132.345-23.164-112.416-41.426H-112.742L-107.815-45.41C-107.105-45.984-106.378-46.538-105.598-47.134L-104.845-47.715C-103.689-48.577-102.515-49.411-101.323-50.22L-100.379-50.837C-99.5-51.419-98.616-51.994-97.719-52.543L-95.739-53.728C-95.456-53.898-95.175-54.069-94.888-54.232L-94.299-54.544C-92.941-55.307-91.554-56.038-90.167-56.729L-89.361-57.144C-87.765-57.921-86.066-58.687-84.313-59.418-84.04-59.532-83.764-59.642-83.487-59.748L-82.997-59.94C-81.706-60.454-80.401-60.947-79.085-61.408-78.507-61.61-77.928-61.805-77.357-61.994-76.048-62.423-74.732-62.824-73.406-63.196L-72.902-63.341C-72.579-63.437-72.253-63.53-71.926-63.615-70.014-64.118-68.233-64.537-66.495-64.888-66.272-64.934-66.052-64.97-65.828-65.009L-65.403-65.083C-63.902-65.371-62.387-65.622-60.869-65.839-60.38-65.91-59.894-65.967-59.401-66.027L-59.021-66.073C-57.666-66.236-56.3-66.371-54.927-66.481L-54.548-66.509C-54.086-66.548-53.629-66.584-53.164-66.612-51.025-66.743-49.124-66.807-47.35-66.807-45.488-66.807-43.526-66.736-41.178-66.587-40.745-66.562-40.312-66.527-39.879-66.492L-39.464-66.456C-37.843-66.325-36.233-66.151-34.626-65.942L-33.278-65.768C-31.298-65.477-29.323-65.122-27.411-64.718L-26.105-64.416C-24.551-64.065-23.008-63.678-21.479-63.249L-19.883-62.795C-17.719-62.15-15.952-61.568-14.275-60.954-12.618-60.348-10.89-59.645-8.833-58.744-8.372-58.542-7.918-58.333-7.35-58.074-5.928-57.421-4.53-56.736-3.15-56.02L-2.728-55.81C-2.48-55.683-2.231-55.559-1.99-55.427-.291-54.519 1.394-53.547 3.022-52.543L4.065-51.876C5.395-51.032 6.701-50.163 7.985-49.258 8.414-48.953 8.84-48.652 9.266-48.343 12.394-46.062 15.41-43.572 18.23-40.947L19.319-39.908C20.468-38.804 21.589-37.676 22.682-36.516L23.483-35.676C24.807-34.239 26.094-32.753 27.311-31.263L27.946-30.45C28.975-29.163 29.968-27.847 30.929-26.509L31.742-25.367C33.998-22.125 36.073-18.716 37.981-15.105L38.166-14.775C38.318-14.484 38.46-14.189 38.606-13.895L38.999-13.1C39.227-12.646 39.453-12.192 39.673-11.735 40.152-10.731 40.61-9.713 41.053-8.684L41.436-7.825C42-6.492 42.533-5.137 43.036-3.771L43.657-2.001C43.863-1.423 44.072-.844 44.26-.259L45.92 4.839 45.722 4.736C47.878 12.813 48.967 21.121 48.971 29.5V29.514C48.971 43.345 46.087 56.704 40.397 69.216 39.301 71.653 38.038 74.086 36.69 76.481" fill="#000000"/>
<path transform="matrix(1,0,0,-1,282.3049,57.114397)" d="M0 0C7.747-11.174 13.43-26.864 16.3-45.168 25.743-42.189 33.668-38.343 39.429-33.948 30.564-18.489 16.495-6.428 0 0" fill="#000000"/>
<path transform="matrix(1,0,0,-1,186.7787,91.0618)" d="M0 0C5.761-4.399 13.686-8.244 23.129-11.224 25.998 7.084 31.681 22.77 39.429 33.948 22.937 27.52 8.865 15.459 0 0" fill="#000000"/>
<path transform="matrix(1,0,0,-1,254.2563,51.867204)" d="M0 0C-14.097 0-27.499-22.412-32.21-53.576-21.937-55.736-11.11-56.829 0-56.829 11.103-56.829 21.93-55.732 32.213-53.572 27.503-22.412 14.097 0 0 0" fill="#000000"/>
<path transform="matrix(1,0,0,-1,150.2509,105.2668)" d="M0 0C-.195-.518-.252-1-.17-1.454-.085-1.905 .113-2.299 .436-2.643 .756-2.99 1.185-3.264 1.72-3.469 2.27-3.672 2.77-3.746 3.228-3.679 3.689-3.618 4.086-3.437 4.423-3.139 4.76-2.845 5.016-2.455 5.2-1.976 5.335-1.621 5.41-1.295 5.427-.993 5.445-.692 5.406-.415 5.314-.167 5.222 .082 5.076 .305 4.878 .497 4.682 .688 4.441 .841 4.15 .954L3.505 1.199 4.363 1.61 3.214-1.415 2.075-.986 3.469 2.678 7.613 1.107 7.173-.06 5.938 .273 6.147 .376C6.328 .181 6.456-.075 6.541-.39 6.619-.706 6.644-1.05 6.612-1.426 6.584-1.802 6.495-2.185 6.343-2.583 6.066-3.317 5.665-3.906 5.137-4.349 4.612-4.796 4.001-5.069 3.317-5.176 2.629-5.278 1.905-5.19 1.142-4.899 .397-4.615-.202-4.204-.653-3.654-1.107-3.111-1.384-2.48-1.486-1.759-1.589-1.043-1.497-.291-1.199 .493-.968 1.096-.66 1.6-.266 2.011 .121 2.426 .56 2.717 1.05 2.884 1.54 3.058 2.05 3.086 2.582 2.966L2.029 1.511C1.547 1.554 1.131 1.43 .787 1.142 .443 .855 .181 .475 0 0" fill="#000000"/>
<path transform="matrix(1,0,0,-1,158.5894,102.6411)" d="M0 0-1.157 .539 .851 4.831 2.004 4.292ZM-6.634 4.455 .518 1.107-.107-.227-7.258 3.118Z" fill="#000000"/>
<path transform="matrix(1,0,0,-1,160.3836,90.512699)" d="M0 0C-.49 .273-.961 .419-1.422 .44-1.884 .458-2.302 .358-2.685 .138-3.065-.078-3.384-.419-3.636-.876-3.888-1.327-4.009-1.77-3.994-2.214-3.98-2.657-3.845-3.069-3.59-3.452-3.327-3.831-2.959-4.158-2.465-4.431-1.976-4.704-1.501-4.849-1.036-4.871-.575-4.892-.153-4.789 .227-4.566 .607-4.342 .922-4.005 1.174-3.555 1.426-3.097 1.55-2.65 1.532-2.21 1.518-1.77 1.38-1.362 1.117-.976 .858-.596 .486-.266 0 0M.752 1.351C1.451 .961 1.987 .468 2.355-.135 2.724-.734 2.909-1.391 2.912-2.096 2.916-2.799 2.721-3.505 2.327-4.211 1.94-4.91 1.444-5.442 .841-5.814 .241-6.18-.408-6.368-1.107-6.368-1.813-6.368-2.512-6.172-3.207-5.786-3.913-5.396-4.448-4.899-4.817-4.296-5.19-3.693-5.378-3.04-5.381-2.338-5.385-1.639-5.19-.937-4.8-.227-4.406 .475-3.913 1.011-3.313 1.376-2.714 1.742-2.061 1.93-1.359 1.933-.656 1.937 .05 1.742 .752 1.351" fill="#000000"/>
<path transform="matrix(1,0,0,-1,164.3155,85.4411)" d="M0 0-1.284-1.926-2.256-1.281-1.015 .578C-.788 .919-.692 1.231-.734 1.518-.773 1.802-.94 2.04-1.235 2.238-1.515 2.426-1.791 2.476-2.065 2.391-2.338 2.302-2.59 2.086-2.827 1.735L-4.065-.128-5.083 .55-3.771 2.515C-3.306 3.214-2.781 3.654-2.199 3.838-1.618 4.026-1.054 3.93-.504 3.565-.107 3.303 .156 2.98 .287 2.593 .415 2.214 .404 1.781 .255 1.298L.131 1.383C.518 1.752 .919 1.965 1.33 2.008 1.742 2.057 2.157 1.944 2.579 1.664 2.948 1.415 3.207 1.11 3.356 .756 3.501 .397 3.533 .003 3.444-.433 3.356-.869 3.154-1.327 2.834-1.806L1.483-3.828 .468-3.154 1.781-1.185C2.015-.834 2.118-.514 2.086-.224 2.05 .067 1.887 .309 1.596 .504 1.32 .685 1.043 .734 .766 .649 .486 .56 .23 .348 0 0M-4.807 .961 1.759-3.416 .94-4.647-5.626-.263Z" fill="#000000"/>
<path transform="matrix(1,0,0,-1,166.6504,78.492099)" d="M0 0 1.415-2.327 2.827-.518 .22 .28C.117 .323 .011 .365-.099 .397-.209 .433-.294 .475-.365 .518-.316 .461-.259 .383-.192 .287-.124 .191-.064 .096 0 0M3.093-5.048 2.157-6.251-2.203 .997-1.277 2.189 6.821-.252 5.867-1.479 4.008-.898 2.079-3.381Z" fill="#000000"/>
<path transform="matrix(1,0,0,-1,174.2996,77.854709)" d="M0 0-.951 .848 2.206 4.381 3.157 3.537ZM-5.076 6.165 .812 .912-.167-.192-6.059 5.066Z" fill="#000000"/>
<path transform="matrix(1,0,0,-1,176.0938,67.565998)" d="M0 0C-.312 .337-.5 .72-.553 1.149-.61 1.582-.539 2.022-.348 2.472-.153 2.926 .16 3.352 .592 3.76 1.007 4.147 1.43 4.413 1.866 4.565 2.299 4.714 2.721 4.743 3.129 4.65 3.533 4.555 3.909 4.345 4.239 4.005L3.164 3.001C2.919 3.235 2.646 3.338 2.334 3.313 2.025 3.281 1.717 3.125 1.415 2.845 1.085 2.533 .883 2.217 .812 1.891 .745 1.564 .823 1.281 1.05 1.039 1.241 .834 1.451 .727 1.685 .724 1.915 .717 2.185 .809 2.501 .99L3.661 1.692C4.285 2.079 4.846 2.267 5.346 2.253 5.839 2.238 6.289 2.015 6.694 1.582 7.02 1.231 7.219 .834 7.286 .39 7.35-.05 7.283-.504 7.077-.961 6.871-1.422 6.545-1.866 6.087-2.292 5.654-2.7 5.211-2.983 4.757-3.147 4.299-3.313 3.863-3.352 3.444-3.271 3.026-3.189 2.65-2.983 2.32-2.65L3.398-1.646C3.629-1.88 3.913-1.976 4.239-1.93 4.569-1.88 4.906-1.699 5.246-1.38 5.608-1.043 5.828-.706 5.906-.369 5.988-.036 5.92 .248 5.704 .482 5.52 .681 5.314 .787 5.09 .802 4.867 .812 4.608 .727 4.31 .536L3.143-.17C2.522-.55 1.947-.731 1.419-.706 .89-.681 .419-.447 0 0" fill="#000000"/>
<path transform="matrix(1,0,0,-1,183.0569,59.314104)" d="M0 0 4.594-5.587 3.455-6.527-1.139-.94ZM-2.657-2.98-3.466-1.994 1.486 2.075 2.295 1.093Z" fill="#000000"/>
<path transform="matrix(1,0,0,-1,188.766,57.072908)" d="M0 0 .709-2.632 2.572-1.288 .291 .209C.202 .277 .11 .344 .018 .408-.078 .475-.153 .536-.206 .596-.174 .529-.142 .44-.103 .33-.067 .22-.032 .106 0 0M1.557-5.711 .326-6.605-1.838 1.571-.614 2.458 6.481-2.15 5.222-3.061 3.6-1.983 1.05-3.828Z" fill="#000000"/>
<path transform="matrix(1,0,0,-1,197.2672,57.962907)" d="M0 0-1.242-.756-5.357 5.981-4.104 6.74 2.873 3.728 2.508 3.505-.731 8.801 .511 9.56 4.626 2.827 3.384 2.068-3.597 5.069-3.232 5.289Z" fill="#000000"/>
<path transform="matrix(1,0,0,-1,201.4761,47.141008)" d="M0 0 2.987-5.917 2.068-5.658 3.962-4.7C4.463-4.448 4.846-4.133 5.112-3.76 5.381-3.381 5.52-2.969 5.534-2.519 5.544-2.068 5.431-1.596 5.186-1.107 4.934-.607 4.615-.227 4.235 .028 3.859 .284 3.434 .415 2.966 .419 2.497 .426 2.001 .298 1.483 .035L-.341-.883ZM4.658-5.775 1.951-7.144-1.604-.092 1.032 1.234C1.774 1.607 2.501 1.788 3.214 1.774 3.927 1.756 4.576 1.564 5.165 1.195 5.75 .826 6.222 .291 6.577-.408 6.921-1.096 7.07-1.784 7.027-2.469 6.985-3.161 6.758-3.789 6.357-4.363 5.952-4.941 5.388-5.406 4.658-5.775" fill="#000000"/>
<path transform="matrix(1,0,0,-1,210.9542,44.587709)" d="M0 0 .085-2.728 2.206-1.845 .33 .138C.259 .223 .188 .312 .11 .394 .035 .482-.025 .557-.064 .628-.05 .557-.036 .461-.025 .348-.014 .227-.007 .113 0 0M.209-5.917-1.195-6.502-1.426 1.955-.032 2.536 5.818-3.576 4.377-4.175 3.047-2.753 .142-3.966Z" fill="#000000"/>
<path transform="matrix(1,0,0,-1,216.9751,41.068407)" d="M0 0 .791-2.366 2.441-1.813C2.887-1.667 3.196-1.444 3.373-1.149 3.551-.855 3.579-.518 3.451-.145 3.327 .23 3.107 .479 2.792 .596 2.476 .717 2.096 .699 1.653 .553ZM2.111-6.318 .709-6.786-1.791 .702 1.259 1.72C2.164 2.022 2.941 2.054 3.583 1.813 4.225 1.571 4.668 1.085 4.917 .348 5.087-.153 5.105-.621 4.977-1.054 4.849-1.486 4.579-1.873 4.168-2.217L6.715-4.782 5.183-5.293 2.891-2.948 1.178-3.523Z" fill="#000000"/>
<path transform="matrix(1,0,0,-1,224.4892,38.120103)" d="M0 0 1.621-6.428 .78-5.974 2.838-5.452C3.38-5.318 3.824-5.094 4.168-4.785 4.509-4.477 4.736-4.101 4.846-3.664 4.959-3.228 4.952-2.746 4.814-2.214 4.675-1.671 4.452-1.235 4.14-.901 3.824-.564 3.441-.348 2.987-.238 2.529-.131 2.018-.149 1.451-.291L-.525-.791ZM3.285-6.655 .344-7.396-1.586 .255 1.273 .979C2.079 1.181 2.831 1.199 3.522 1.029 4.214 .855 4.807 .525 5.3 .039 5.793-.451 6.133-1.075 6.325-1.838 6.513-2.583 6.509-3.285 6.314-3.945 6.123-4.608 5.764-5.176 5.246-5.647 4.728-6.123 4.072-6.453 3.285-6.655" fill="#000000"/>
<path transform="matrix(1,0,0,-1,231.5839,38.023195)" d="M0 0C-.082 .454-.029 .876 .16 1.266 .351 1.66 .649 1.994 1.057 2.267 1.461 2.54 1.958 2.728 2.543 2.831 3.1 2.93 3.604 2.923 4.051 2.813 4.494 2.703 4.863 2.494 5.154 2.196 5.445 1.898 5.64 1.515 5.736 1.05L4.285 .795C4.211 1.121 4.037 1.362 3.76 1.504 3.483 1.65 3.143 1.688 2.735 1.614 2.288 1.536 1.947 1.38 1.71 1.142 1.476 .908 1.387 .628 1.444 .301 1.493 .025 1.614-.181 1.805-.312 1.993-.44 2.274-.518 2.632-.529L3.987-.575C4.725-.592 5.296-.741 5.704-1.022 6.116-1.305 6.371-1.735 6.474-2.316 6.559-2.792 6.509-3.232 6.321-3.636 6.133-4.048 5.832-4.385 5.406-4.661 4.984-4.938 4.466-5.13 3.852-5.24 3.271-5.342 2.742-5.339 2.274-5.229 1.798-5.115 1.408-4.917 1.107-4.619 .798-4.321 .596-3.945 .5-3.484L1.954-3.228C2.015-3.554 2.199-3.785 2.504-3.923 2.806-4.065 3.185-4.094 3.647-4.016 4.133-3.927 4.502-3.767 4.75-3.526 5.002-3.292 5.097-3.015 5.044-2.703 4.995-2.437 4.881-2.235 4.704-2.1 4.523-1.969 4.257-1.898 3.905-1.894L2.54-1.852C1.813-1.838 1.234-1.674 .805-1.366 .372-1.057 .103-.603 0 0" fill="#000000"/>
<path transform="matrix(1,0,0,-1,240.3484,42.495409)" d="M0 0C-.252-.032-.483 .021-.685 .163-.891 .301-1.008 .493-1.036 .727-1.068 .961-1.001 1.174-.841 1.369-.678 1.557-.475 1.671-.22 1.703 .028 1.735 .255 1.681 .461 1.536 .663 1.394 .784 1.203 .812 .965 .844 .731 .78 .518 .617 .333 .457 .142 .248 .035 0 0" fill="#000000"/>
<path transform="matrix(1,0,0,-1,248.6555,34.3685)" d="M0 0 .394-7.226-1.078-7.308-1.472-.082ZM-3.906-.83-3.973 .44 2.43 .791 2.497-.482Z" fill="#000000"/>
<path transform="matrix(1,0,0,-1,254.0907,34.790895)" d="M0 0-.043-2.494 1.699-2.522C2.167-2.529 2.536-2.426 2.799-2.203 3.065-1.987 3.2-1.678 3.207-1.281 3.214-.887 3.086-.578 2.831-.365 2.572-.149 2.206-.036 1.738-.028ZM-.107-6.662-1.582-6.637-1.458 1.256 1.759 1.203C2.714 1.188 3.451 .961 3.98 .518 4.509 .078 4.764-.529 4.753-1.305 4.743-1.834 4.608-2.281 4.345-2.643 4.079-3.012 3.696-3.288 3.192-3.473L4.746-6.736 3.132-6.715 1.749-3.743-.06-3.714Z" fill="#000000"/>
<path transform="matrix(1,0,0,-1,260.2639,38.698595)" d="M0 0 .419 4.991 1.887 4.867 1.476-.039C1.426-.603 1.55-1.054 1.848-1.38 2.142-1.706 2.586-1.898 3.178-1.948 3.774-1.997 4.246-1.884 4.597-1.607 4.945-1.327 5.14-.912 5.186-.351L5.601 4.555 7.07 4.431 6.651-.561C6.598-1.171 6.421-1.689 6.108-2.114 5.8-2.54 5.388-2.856 4.867-3.058 4.349-3.264 3.749-3.338 3.065-3.281 2.394-3.225 1.816-3.051 1.341-2.767 .862-2.48 .507-2.104 .273-1.628 .039-1.149-.053-.61 0 0" fill="#000000"/>
<path transform="matrix(1,0,0,-1,268.7166,36.661806)" d="M0 0C.071 .458 .255 .837 .56 1.146 .865 1.458 1.256 1.678 1.731 1.802 2.206 1.93 2.735 1.947 3.324 1.855 3.884 1.77 4.356 1.6 4.743 1.351 5.126 1.103 5.406 .791 5.587 .411 5.764 .035 5.828-.387 5.768-.862L4.31-.635C4.349-.298 4.257-.018 4.047 .209 3.831 .436 3.519 .582 3.107 .646 2.661 .713 2.288 .674 1.99 .529 1.692 .38 1.514 .145 1.465-.184 1.419-.461 1.468-.692 1.607-.876 1.745-1.064 1.987-1.22 2.32-1.355L3.59-1.834C4.278-2.089 4.775-2.416 5.069-2.813 5.367-3.21 5.47-3.703 5.378-4.285 5.303-4.764 5.112-5.161 4.803-5.488 4.502-5.811 4.101-6.034 3.611-6.158 3.121-6.282 2.572-6.297 1.954-6.201 1.369-6.112 .869-5.938 .461-5.683 .05-5.424-.252-5.105-.447-4.725-.642-4.349-.71-3.923-.656-3.462L.805-3.686C.763-4.016 .858-4.292 1.103-4.523 1.341-4.754 1.692-4.906 2.153-4.977 2.643-5.055 3.04-5.02 3.356-4.874 3.668-4.729 3.852-4.502 3.902-4.19 3.941-3.916 3.899-3.689 3.771-3.505 3.643-3.324 3.416-3.175 3.082-3.054L1.806-2.575C1.117-2.32 .624-1.983 .319-1.55 .011-1.121-.092-.603 0 0" fill="#000000"/>
<path transform="matrix(1,0,0,-1,279.421,37.018709)" d="M0 0-1.543-7.066-2.987-6.751-1.44 .316ZM-3.984 .241-3.711 1.486 2.551 .117 2.281-1.125Z" fill="#000000"/>
<path transform="matrix(1,0,0,-1,286.3563,46.333604)" d="M0 0-5.034 1.44-2.859 9.028 2.171 7.588 1.823 6.36-2.292 7.538-1.671 7.822-2.349 5.445 .887 4.516 .55 3.345-2.685 4.271-3.384 1.834-3.764 2.401 .351 1.224Z" fill="#000000"/>
<path transform="matrix(1,0,0,-1,291.5771,40.444704)" d="M0 0-2.278-6.229-2.714-5.378-.72-6.105C-.195-6.297 .298-6.364 .755-6.297 1.213-6.236 1.607-6.055 1.947-5.757 2.284-5.459 2.547-5.055 2.735-4.537 2.926-4.012 2.987-3.523 2.912-3.072 2.845-2.618 2.65-2.221 2.331-1.873 2.015-1.532 1.582-1.256 1.036-1.057L-.88-.358ZM-1.029-7.35-3.877-6.307-1.171 1.107 1.603 .092C2.384-.195 3.012-.6 3.487-1.128 3.966-1.664 4.271-2.267 4.402-2.948 4.533-3.625 4.466-4.338 4.196-5.076 3.93-5.796 3.533-6.378 3.005-6.815 2.469-7.254 1.855-7.52 1.16-7.62 .468-7.719-.263-7.627-1.029-7.35" fill="#000000"/>
<path transform="matrix(1,0,0,-1,301.4602,52.604005)" d="M0 0C-.734 .365-1.298 .826-1.696 1.398-2.086 1.965-2.295 2.593-2.324 3.288-2.355 3.984-2.185 4.7-1.82 5.442-1.455 6.176-.983 6.743-.404 7.141 .174 7.535 .812 7.751 1.525 7.772 2.231 7.801 2.951 7.634 3.679 7.276 4.278 6.978 4.768 6.605 5.137 6.165 5.512 5.722 5.761 5.243 5.889 4.714 6.013 4.193 5.991 3.654 5.825 3.104L4.427 3.792C4.502 4.271 4.416 4.714 4.179 5.115 3.934 5.523 3.561 5.85 3.047 6.105 2.593 6.328 2.146 6.428 1.706 6.396 1.266 6.364 .862 6.211 .496 5.935 .128 5.658-.184 5.264-.433 4.757-.678 4.264-.798 3.789-.798 3.324-.795 2.866-.671 2.444-.433 2.075-.192 1.699 .156 1.405 .61 1.178 1.128 .922 1.628 .819 2.111 .869 2.593 .919 2.997 1.107 3.317 1.44L4.689 .763C4.353 .319 3.927-.011 3.423-.224 2.916-.44 2.37-.532 1.781-.5 1.195-.465 .599-.298 0 0" fill="#000000"/>
<path transform="matrix(1,0,0,-1,310.5263,57.485109)" d="M0 0-4.509 2.661-.5 9.461 4.008 6.8 3.363 5.701-.323 7.875 .351 7.992-.908 5.864 1.993 4.154 1.373 3.104-1.529 4.81-2.817 2.625-3.037 3.274 .649 1.1Z" fill="#000000"/>
<path transform="matrix(1,0,0,-1,316.6921,53.567)" d="M0 0-1.408-2.058 .028-3.04C.411-3.31 .777-3.423 1.117-3.384 1.461-3.349 1.742-3.168 1.969-2.842 2.189-2.515 2.256-2.189 2.157-1.866 2.064-1.547 1.823-1.252 1.433-.983ZM-3.767-5.498-4.981-4.661-.522 1.848 2.132 .032C2.916-.511 3.409-1.107 3.608-1.763 3.803-2.423 3.682-3.072 3.242-3.714 2.944-4.147 2.586-4.445 2.164-4.604 1.742-4.768 1.266-4.785 .749-4.661L.238-8.241-1.093-7.329-.607-4.087-2.1-3.065Z" fill="#000000"/>
<path transform="matrix(1,0,0,-1,321.3931,56.885606)" d="M0 0 .791 .997 5.821-2.973 5.03-3.973ZM3.473-1.962-1.004-7.637-2.164-6.726 2.316-1.047Z" fill="#000000"/>
<path transform="matrix(1,0,0,-1,329.354,61.7529)" d="M0 0-5.179-5.956-6.293-4.988-1.114 .965Z" fill="#000000"/>
<path transform="matrix(1,0,0,-1,333.8088,67.6422)" d="M0 0-3.689 3.519-2.81 4.441 .876 .922ZM-2.774-2.04-6.045 1.082-5.19 1.979-1.919-1.139ZM-1.827 3.501-7.272-2.21-8.344-1.192-2.891 4.519Z" fill="#000000"/>
<path transform="matrix(1,0,0,-1,336.8677,69.020709)" d="M0 0-5.715-5.445-6.733-4.374-1.018 1.071Z" fill="#000000"/>
<path transform="matrix(1,0,0,-1,334.5365,78.46091)" d="M0 0C-.529 .628-.866 1.277-1.001 1.955-1.135 2.629-1.082 3.295-.834 3.941-.589 4.59-.149 5.183 .482 5.718 1.107 6.25 1.763 6.584 2.451 6.722 3.139 6.857 3.813 6.797 4.477 6.541 5.133 6.282 5.729 5.846 6.257 5.229 6.69 4.718 6.992 4.186 7.162 3.629 7.325 3.079 7.364 2.536 7.275 2.004 7.18 1.472 6.949 .986 6.577 .55L5.566 1.735C5.825 2.143 5.924 2.586 5.86 3.051 5.8 3.515 5.583 3.966 5.218 4.399 4.888 4.789 4.512 5.055 4.097 5.2 3.682 5.346 3.249 5.364 2.802 5.254 2.355 5.147 1.915 4.909 1.483 4.541 1.068 4.189 .766 3.796 .585 3.37 .404 2.944 .351 2.515 .426 2.075 .5 1.639 .699 1.231 1.029 .841 1.405 .401 1.82 .11 2.284-.036 2.746-.181 3.189-.163 3.618 .014L4.608-1.153C4.122-1.426 3.604-1.561 3.054-1.557 2.504-1.554 1.969-1.422 1.44-1.16 .915-.898 .433-.511 0 0" fill="#000000"/>
<path transform="matrix(1,0,0,-1,343.779,81.048709)" d="M0 0-2.629-.713-1.281-2.572 .213-.287C.28-.202 .348-.107 .411-.014 .479 .078 .535 .153 .599 .209 .529 .177 .443 .142 .333 .103ZM-5.708-1.561-6.602-.334 1.571 1.841 2.458 .617-2.143-6.481-3.054-5.222-1.98-3.601-3.824-1.054Z" fill="#000000"/>
<path transform="matrix(1,0,0,-1,346.8728,83.49429)" d="M0 0 1.078 .677 4.509-4.736 3.43-5.417ZM2.628-3.005-3.48-6.871-4.271-5.626 1.841-1.756Z" fill="#000000"/>
<path transform="matrix(1,0,0,-1,352.8067,90.796909)" d="M0 0-6.871-3.888-7.599-2.604-.727 1.281Z" fill="#000000"/>
<path transform="matrix(1,0,0,-1,353.0457,99.9146)" d="M0 0C.504 .248 .894 .553 1.17 .922 1.447 1.288 1.607 1.692 1.646 2.128 1.685 2.568 1.586 3.022 1.359 3.487 1.132 3.952 .834 4.306 .465 4.544 .092 4.789-.323 4.913-.784 4.92-1.245 4.927-1.724 4.803-2.231 4.558-2.735 4.314-3.125 4.005-3.406 3.636-3.689 3.267-3.845 2.866-3.877 2.426-3.913 1.986-3.813 1.536-3.59 1.071-3.359 .599-3.058 .245-2.693 .007-2.32-.231-1.905-.355-1.44-.358-.979-.362-.5-.241 0 0M.677-1.387C-.043-1.738-.752-1.891-1.455-1.852-2.16-1.813-2.803-1.589-3.384-1.192-3.962-.791-4.431-.227-4.789 .5-5.137 1.217-5.293 1.926-5.25 2.629-5.215 3.334-4.991 3.973-4.594 4.551-4.197 5.126-3.633 5.591-2.916 5.942-2.192 6.293-1.479 6.453-.773 6.414-.071 6.371 .571 6.151 1.149 5.757 1.728 5.36 2.196 4.799 2.554 4.072 2.905 3.345 3.061 2.636 3.022 1.933 2.98 1.234 2.756 .592 2.359 .014 1.965-.564 1.405-1.032 .677-1.387" fill="#000000"/>
<path transform="matrix(1,0,0,-1,351.137,105.4818)" d="M0 0-.518 1.355 6.846 4.193 7.371 2.827 3.154-3.494 2.997-3.097 8.794-.866 9.315-2.221 1.947-5.059 1.426-3.7 5.633 2.625 5.786 2.228Z" fill="#000000"/>
<path transform="matrix(1,0,0,-1,172.1587,209.4425)" d="M0 0C.532 .486 1.139 .766 1.816 .841 2.487 .922 3.175 .805 3.874 .497 4.572 .184 5.232-.312 5.846-.993 6.438-1.653 6.846-2.32 7.063-3.001 7.283-3.679 7.315-4.335 7.158-4.966 6.999-5.601 6.651-6.176 6.116-6.694L4.576-4.991C4.952-4.619 5.126-4.193 5.094-3.707 5.059-3.221 4.821-2.739 4.392-2.263 3.916-1.738 3.43-1.419 2.923-1.305 2.419-1.192 1.972-1.309 1.586-1.657 1.259-1.951 1.089-2.281 1.075-2.639 1.057-3.001 1.188-3.427 1.461-3.916L2.519-5.74C3.104-6.726 3.377-7.606 3.338-8.379 3.303-9.152 2.941-9.851 2.256-10.472 1.696-10.979 1.068-11.281 .376-11.369-.316-11.462-1.018-11.344-1.731-11.018-2.444-10.692-3.129-10.167-3.774-9.45-4.392-8.769-4.821-8.067-5.066-7.354-5.307-6.641-5.36-5.956-5.218-5.307-5.076-4.654-4.743-4.072-4.211-3.565L-2.675-5.264C-3.051-5.623-3.21-6.059-3.15-6.577-3.086-7.091-2.81-7.616-2.32-8.159-1.809-8.727-1.291-9.078-.77-9.209-.245-9.34 .199-9.237 .564-8.907 .883-8.62 1.057-8.301 1.085-7.953 1.11-7.609 .983-7.198 .699-6.729L-.369-4.895C-.947-3.916-1.206-3.022-1.149-2.199-1.096-1.376-.713-.646 0 0" fill="#000000"/>
<path transform="matrix(1,0,0,-1,180.8018,224.6918)" d="M0 0 4.906 6.13 6.697 4.697 1.873-1.327C1.32-2.022 1.089-2.714 1.185-3.395 1.277-4.076 1.688-4.707 2.405-5.282 3.132-5.864 3.842-6.126 4.53-6.066 5.225-6.002 5.842-5.63 6.396-4.945L11.213 1.078 13.005-.355 8.099-6.481C7.499-7.23 6.814-7.751 6.041-8.035 5.271-8.319 4.463-8.368 3.611-8.191 2.76-8.01 1.923-7.584 1.093-6.921 .27-6.265-.323-5.541-.688-4.757-1.054-3.973-1.181-3.171-1.068-2.352-.958-1.532-.6-.749 0 0" fill="#000000"/>
<path transform="matrix(1,0,0,-1,197.6102,231.7209)" d="M0 0C.355 .628 .841 1.085 1.454 1.373 2.072 1.657 2.76 1.763 3.519 1.692 4.282 1.614 5.062 1.352 5.86 .897 6.63 .461 7.226-.046 7.648-.621 8.07-1.199 8.308-1.813 8.354-2.462 8.407-3.111 8.258-3.767 7.911-4.427L5.917-3.295C6.155-2.824 6.183-2.363 5.998-1.912 5.814-1.465 5.442-1.082 4.881-.763 4.267-.415 3.703-.266 3.185-.319 2.671-.369 2.284-.621 2.025-1.075 1.813-1.454 1.752-1.82 1.848-2.167 1.947-2.515 2.206-2.88 2.621-3.257L4.2-4.654C5.066-5.403 5.601-6.151 5.81-6.9 6.016-7.648 5.892-8.425 5.438-9.23 5.066-9.886 4.565-10.369 3.938-10.674 3.313-10.979 2.607-11.089 1.827-11.004 1.046-10.915 .23-10.635-.61-10.156-1.408-9.702-2.036-9.177-2.49-8.574-2.948-7.974-3.21-7.339-3.281-6.68-3.352-6.016-3.217-5.36-2.877-4.711L-.88-5.839C-1.125-6.297-1.139-6.761-.919-7.23-.695-7.701-.266-8.113 .369-8.475 1.032-8.851 1.632-9.021 2.167-8.978 2.707-8.943 3.097-8.705 3.342-8.272 3.554-7.904 3.618-7.545 3.537-7.205 3.455-6.871 3.2-6.524 2.785-6.169L1.195-4.761C.34-4.019-.195-3.246-.397-2.448-.607-1.653-.475-.834 0 0" fill="#000000"/>
<path transform="matrix(1,0,0,-1,211.5084,237.4783)" d="M0 0 .72 1.862 10.01-1.735 9.29-3.597ZM6.062-1.313 1.972-11.884-.17-11.054 3.923-.486Z" fill="#000000"/>
<path transform="matrix(1,0,0,-1,229.9625,245.2934)" d="M0 0-2.359-3.554 1.117-4.353 .543-.124C.532 .053 .518 .227 .5 .404 .479 .585 .475 .734 .493 .858 .443 .756 .372 .624 .28 .465 .191 .305 .096 .153 0 0M-5.098-7.737-7.403-7.208-.032 3.789 2.256 3.267 4.104-9.844 1.749-9.305 1.355-6.282-3.413-5.19Z" fill="#000000"/>
<path transform="matrix(1,0,0,-1,245.4477,244.0189)" d="M0 0-1.188-12.313-3.473-12.089-2.285 .22Z" fill="#000000"/>
<path transform="matrix(1,0,0,-1,255.7535,256.7947)" d="M0 0-2.26-.082-2.71 12.277-.433 12.359 6.726 2.884 6.062 2.863 5.704 12.586 7.964 12.668 8.414 .309 6.158 .223-1.018 9.681-.358 9.706Z" fill="#000000"/>
<path transform="matrix(1,0,0,-1,276.1024,245.9277)" d="M0 0-.671-4.214 2.824-3.494 .543 .11C.461 .266 .372 .422 .284 .575 .191 .731 .124 .866 .089 .983 .085 .869 .078 .72 .064 .539 .046 .358 .025 .177 0 0M-1.426-9.156-3.746-9.635-1.603 3.437 .695 3.909 7.822-7.254 5.452-7.74 3.838-5.151-.954-6.137Z" fill="#000000"/>
<path transform="matrix(1,0,0,-1,296.4891,249.1945)" d="M0 0C-1.196-.458-2.324-.61-3.388-.458-4.452-.302-5.396 .124-6.222 .83-7.049 1.536-7.694 2.49-8.159 3.703-8.62 4.902-8.776 6.045-8.62 7.13-8.468 8.216-8.035 9.181-7.318 10.021-6.605 10.865-5.662 11.511-4.48 11.965-3.508 12.338-2.575 12.501-1.674 12.462-.777 12.419 .042 12.192 .777 11.777 1.511 11.366 2.103 10.77 2.557 9.986L.298 9.12C-.174 9.713-.766 10.089-1.486 10.241-2.203 10.394-2.973 10.312-3.799 9.993-4.534 9.713-5.115 9.301-5.541 8.765-5.97 8.226-6.219 7.602-6.289 6.882-6.361 6.165-6.236 5.396-5.917 4.562-5.609 3.764-5.19 3.118-4.654 2.625-4.122 2.139-3.516 1.834-2.838 1.71-2.157 1.593-1.451 1.674-.713 1.958 .121 2.277 .766 2.739 1.217 3.349 1.671 3.955 1.869 4.622 1.827 5.342L4.051 6.194C4.204 5.335 4.136 4.502 3.852 3.689 3.569 2.88 3.097 2.153 2.437 1.518 1.781 .876 .968 .369 0 0" fill="#000000"/>
<path transform="matrix(1,0,0,-1,316.727,238.8571)" d="M0 0-7.024-4.101-13.26 6.58-6.236 10.681-5.229 8.953-10.972 5.605-10.625 6.612-8.67 3.267-4.151 5.903-3.186 4.25-7.709 1.614-5.701-1.82-6.747-1.628-1.008 1.72Z" fill="#000000"/>
<path transform="matrix(1,0,0,-1,319.2769,224.2484)" d="M0 0 2.465-3.029 4.565-1.327C5.129-.866 5.459-.373 5.555 .156 5.651 .681 5.502 1.188 5.108 1.671 4.718 2.15 4.26 2.391 3.735 2.394 3.21 2.394 2.664 2.164 2.1 1.706ZM6.584-8.099 4.803-9.546-2.998 .053 .883 3.203C2.033 4.14 3.143 4.604 4.214 4.604 5.286 4.601 6.204 4.129 6.974 3.182 7.492 2.543 7.779 1.873 7.836 1.171 7.893 .468 7.715-.248 7.308-.972L12.44-3.342 10.493-4.924 5.853-2.739 3.671-4.516Z" fill="#000000"/>
<path transform="matrix(1,0,0,-1,332.7592,210.3258)" d="M0 0 8.418-7.595 6.878-9.298-1.54-1.703ZM-3.388-5.197-4.871-3.86 1.802 3.537 3.285 2.199Z" fill="#000000"/>
<path transform="matrix(1,0,0,-1,254.2567,23.828186)" d="M0 0C-66.265 0-120.17-53.909-120.17-120.17-120.17-186.434-66.265-240.344 0-240.344 66.264-240.344 120.173-186.434 120.173-120.17 120.173-53.909 66.264 0 0 0M0-245.271C-68.982-245.271-125.097-189.152-125.097-120.17-125.097-51.192-68.982 4.927 0 4.927 68.978 4.927 125.101-51.192 125.101-120.17 125.101-189.152 68.978-245.271 0-245.271" fill="#000000"/>
<path transform="matrix(1,0,0,-1,353.0767,175.8548)" d="M0 0 2.022-4.101 6.548-4.757 3.274-7.95 4.047-12.455 0-10.326-4.048-12.455-3.274-7.95-6.548-4.757-2.022-4.101Z" fill="#000000"/>
<path transform="matrix(1,0,0,-1,360.3853,154.9265)" d="M0 0 2.022-4.101 6.548-4.757 3.274-7.95 4.047-12.455 0-10.326-4.048-12.455-3.274-7.95-6.548-4.757-2.022-4.101Z" fill="#000000"/>
<path transform="matrix(1,0,0,-1,362.6929,131.5449)" d="M0 0 2.022-4.101 6.548-4.757 3.274-7.95 4.047-12.455 0-10.326-4.048-12.455-3.274-7.95-6.548-4.757-2.022-4.101Z" fill="#000000"/>
<path transform="matrix(1,0,0,-1,155.8991,175.8548)" d="M0 0-2.022-4.101-6.548-4.757-3.274-7.95-4.048-12.455 0-10.326 4.048-12.455 3.274-7.95 6.548-4.757 2.022-4.101Z" fill="#000000"/>
<path transform="matrix(1,0,0,-1,148.5905,154.9265)" d="M0 0-2.022-4.101-6.548-4.757-3.274-7.95-4.048-12.455 0-10.326 4.048-12.455 3.274-7.95 6.548-4.757 2.022-4.101Z" fill="#000000"/>
<path transform="matrix(1,0,0,-1,146.2832,131.5449)" d="M0 0-2.022-4.101-6.548-4.757-3.274-7.95-4.048-12.455 0-10.326 4.047-12.455 3.274-7.95 6.548-4.757 2.022-4.101Z" fill="#000000"/>
<path transform="matrix(1,0,0,-1,254.0194,117.10249)" d="M0 0C-7.694 .099-15.168-.011-22.654 1.142V-49.645H1.621 25.892L26.034 1.571 24.509 1.341C16.038 .174 10.106-.131 0 0" fill="#000000"/>
<path transform="matrix(1,0,0,-1,0,288)" d="M260.729 157.929H237.49V160.22101H260.729Z" fill="#30cd72"/>
<path transform="matrix(1,0,0,-1,0,288)" d="M260.729 152.562H237.49V154.854H260.729Z" fill="#30cd72"/>
<path transform="matrix(1,0,0,-1,0,288)" d="M273.684 146.655H237.48999V148.947H273.684Z" fill="#30cd72"/>
<path transform="matrix(1,0,0,-1,0,288)" d="M273.684 141.288H237.48999V143.58H273.684Z" fill="#30cd72"/>
<path transform="matrix(1,0,0,-1,0,288)" d="M273.684 135.921H237.48999V138.21302H273.684Z" fill="#30cd72"/>
<path transform="matrix(1,0,0,-1,0,288)" d="M273.684 130.554H237.48999V132.84601H273.684Z" fill="#30cd72"/>
<path transform="matrix(1,0,0,-1,471.398,141.5853)" d="M0 0C-1.16-2.483-2.771-4.565-4.842-6.25-6.914-7.939-9.383-9.227-12.256-10.114-15.126-11-18.308-11.447-21.802-11.447-26.708-11.447-31.518-10.603-36.236-8.918-40.958-7.233-45.246-4.644-49.11-1.149L-40.741 8.872C-37.801 6.481-34.782 4.583-31.685 3.171-28.592 1.759-25.204 1.057-21.526 1.057-18.585 1.057-16.304 1.593-14.675 2.668-13.054 3.739-12.242 5.225-12.242 7.127V7.308C-12.242 8.23-12.409 9.042-12.749 9.745-13.086 10.45-13.732 11.11-14.686 11.724-15.637 12.334-16.956 12.948-18.648 13.562-20.337 14.172-22.536 14.817-25.24 15.491-28.496 16.289-31.447 17.176-34.09 18.159-36.733 19.138-38.975 20.348-40.819 21.791-42.664 23.232-44.094 25.023-45.105 27.169-46.119 29.315-46.626 31.979-46.626 35.168V35.353C-46.626 38.294-46.08 40.943-44.984 43.306-43.888 45.665-42.348 47.701-40.369 49.418-38.389 51.135-36.027 52.455-33.281 53.373-30.532 54.292-27.503 54.753-24.193 54.753-19.475 54.753-15.137 54.047-11.185 52.639-7.23 51.227-3.597 49.205-.288 46.57L-7.645 35.903C-10.525 37.864-13.345 39.411-16.101 40.546-18.861 41.681-21.618 42.249-24.377 42.249-27.134 42.249-29.205 41.71-30.582 40.638-31.962 39.567-32.65 38.233-32.65 36.641V36.456C-32.65 35.413-32.451 34.509-32.054 33.742-31.653 32.976-30.933 32.288-29.887 31.674-28.84 31.061-27.411 30.479-25.598 29.929-23.785 29.376-21.497 28.733-18.73 27.996-15.474 27.137-12.572 26.172-10.018 25.101-7.471 24.026-5.318 22.738-3.565 21.238-1.816 19.737-.493 17.974 .397 15.952 1.288 13.93 1.734 11.508 1.734 8.687V8.503C1.734 5.317 1.156 2.483 0 0" fill="#000000"/>
<path transform="matrix(1,0,0,-1,538.5504,136.8506)" d="M0 0C-1.32-3.618-3.203-6.634-5.655-9.056-8.106-11.479-11.079-13.285-14.573-14.48-18.067-15.676-21.962-16.272-26.25-16.272-34.892-16.272-41.696-13.881-46.662-9.103-51.628-4.321-54.108 2.82-54.108 12.32V49.099H-39.95V12.689C-39.95 7.417-38.723 3.448-36.272 .78-33.821-1.884-30.419-3.217-26.066-3.217-21.713-3.217-18.312-1.93-15.86 .646-13.409 3.217-12.185 7.08-12.185 12.228V49.099H1.976V12.781C1.976 7.875 1.316 3.615 0 0" fill="#000000"/>
<path transform="matrix(1,0,0,-1,599.7498,141.5853)" d="M0 0C-1.157-2.483-2.771-4.565-4.842-6.25-6.914-7.939-9.383-9.227-12.253-10.114-15.126-11-18.308-11.447-21.802-11.447-26.704-11.447-31.518-10.603-36.236-8.918-40.958-7.233-45.246-4.644-49.11-1.149L-40.741 8.872C-37.801 6.481-34.782 4.583-31.685 3.171-28.592 1.759-25.204 1.057-21.526 1.057-18.585 1.057-16.3 1.593-14.675 2.668-13.054 3.739-12.238 5.225-12.238 7.127V7.308C-12.238 8.23-12.409 9.042-12.746 9.745-13.086 10.45-13.732 11.11-14.683 11.724-15.637 12.334-16.956 12.948-18.648 13.562-20.337 14.172-22.536 14.817-25.24 15.491-28.496 16.289-31.444 17.176-34.09 18.159-36.733 19.138-38.975 20.348-40.819 21.791-42.664 23.232-44.09 25.023-45.105 27.169-46.119 29.315-46.627 31.979-46.627 35.168V35.353C-46.627 38.294-46.08 40.943-44.984 43.306-43.888 45.665-42.348 47.701-40.369 49.418-38.389 51.135-36.027 52.455-33.278 53.373-30.532 54.292-27.503 54.753-24.193 54.753-19.475 54.753-15.137 54.047-11.181 52.639-7.23 51.227-3.597 49.205-.288 46.57L-7.641 35.903C-10.525 37.864-13.342 39.411-16.101 40.546-18.858 41.681-21.618 42.249-24.377 42.249-27.134 42.249-29.205 41.71-30.582 40.638-31.962 39.567-32.65 38.233-32.65 36.641V36.456C-32.65 35.413-32.451 34.509-32.05 33.742-31.653 32.976-30.933 32.288-29.887 31.674-28.84 31.061-27.411 30.479-25.598 29.929-23.785 29.376-21.497 28.733-18.73 27.996-15.474 27.137-12.568 26.172-10.018 25.101-7.467 24.026-5.318 22.738-3.565 21.238-1.813 19.737-.493 17.974 .397 15.952 1.291 13.93 1.734 11.508 1.734 8.687V8.503C1.734 5.317 1.156 2.483 0 0" fill="#000000"/>
<path transform="matrix(1,0,0,-1,642.9532,100.8085)" d="M0 0V-51.305H-14.158V0H-33.742V13.058H19.585V0Z" fill="#000000"/>
<path transform="matrix(1,0,0,-1,0,288)" d="M746.663 200.249H760.82406V135.88899H746.663Z" fill="#000000"/>
<path transform="matrix(1,0,0,-1,822.0579,152.1127)" d="M0 0-31.171 40.915V0H-45.144V64.36H-32.089L-1.93 24.732V64.36H12.043V0Z" fill="#000000"/>
<path transform="matrix(1,0,0,-1,973.5785,146.5037)" d="M0 0C-1.781-1.412-3.721-2.618-5.839-3.632-7.953-4.643-10.266-5.41-12.781-5.931-15.293-6.449-18.113-6.712-21.242-6.712-25.96-6.712-30.341-5.853-34.388-4.136-38.432-2.423-41.926-.078-44.871 2.895-47.811 5.867-50.11 9.379-51.763 13.423-53.42 17.467-54.246 21.791-54.246 26.389V26.57C-54.246 31.167-53.42 35.473-51.763 39.489-50.11 43.505-47.811 47.027-44.871 50.064-41.926 53.097-38.4 55.488-34.296 57.233-30.188 58.982-25.655 59.854-20.688 59.854-17.687 59.854-14.942 59.61-12.458 59.12-9.975 58.627-7.723 57.953-5.701 57.098-3.679 56.236-1.809 55.197-.092 53.969 1.625 52.742 3.217 51.394 4.689 49.925L-4.321 39.535C-6.836 41.802-9.393 43.583-11.997 44.867-14.604 46.155-17.531 46.8-20.781 46.8-23.477 46.8-25.974 46.279-28.272 45.236-30.571 44.193-32.547 42.753-34.204 40.915-35.857 39.074-37.144 36.946-38.063 34.523-38.982 32.103-39.443 29.514-39.443 26.754V26.57C-39.443 23.813-38.982 21.206-38.063 18.755-37.144 16.304-35.874 14.157-34.25 12.32-32.625 10.482-30.663 9.024-28.365 7.953-26.066 6.878-23.537 6.343-20.781 6.343-17.102 6.343-13.991 7.017-11.448 8.365-8.904 9.713-6.375 11.554-3.863 13.884L5.147 4.782C3.494 3.001 1.777 1.408 0 0" fill="#30cd72"/>
<path transform="matrix(1,0,0,-1,990.0358,152.1127)" d="M0 0V64.36H48.453V51.763H13.976V38.709H48.027V26.112H13.976V12.597H48.914V0Z" fill="#30cd72"/>
<path transform="matrix(1,0,0,-1,1090.9894,109.7265)" d="M0 0C0 3.065-.983 5.364-2.941 6.896-4.906 8.428-7.634 9.195-11.125 9.195H-25.193V-9.287H-10.851C-7.354-9.287-4.676-8.46-2.806-6.804-.937-5.151 0-2.941 0-.184ZM-.277-42.387-14.069-21.791H-25.193V-42.387H-39.354V21.976H-9.933C-2.27 21.976 3.693 20.103 7.953 16.364 12.214 12.625 14.342 7.414 14.342 .734V.553C14.342-4.661 13.068-8.904 10.528-12.182 7.982-15.463 4.654-17.868 .55-19.4L16.275-42.387Z" fill="#30cd72"/>
<path transform="matrix(1,0,0,-1,1147.2557,100.8085)" d="M0 0V-51.305H-14.158V0H-33.743V13.058H19.585V0Z" fill="#30cd72"/>
<path transform="matrix(1,0,0,-1,435.7639,172.9854)" d="M0 0C-1.87 0-3.498-.404-4.892-1.217-6.283-2.026-7.347-3.164-8.088-4.622-8.829-6.08-9.202-7.79-9.202-9.752-9.202-11.738-8.812-13.441-8.038-14.867-7.262-16.297-6.173-17.393-4.771-18.162-3.367-18.929-1.756-19.312 .071-19.312 1.114-19.312 2.121-19.184 3.079-18.929 4.037-18.677 4.895-18.262 5.661-17.698 6.424-17.134 7.031-16.378 7.488-15.431 7.946-14.48 8.177-13.324 8.177-11.958V-9.688L9.372-10.809H-.681V-8.73H10.5V-21.135H8.549L8.241-16.403 8.585-16.946C8.219-17.779 7.63-18.542 6.825-19.234 6.013-19.925 5.027-20.475 3.867-20.88 2.703-21.284 1.405-21.49-.035-21.49-2.338-21.49-4.371-21.004-6.137-20.032-7.907-19.063-9.283-17.694-10.277-15.924-11.27-14.154-11.763-12.096-11.763-9.752-11.763-7.41-11.27-5.342-10.277-3.551-9.283-1.759-7.904-.358-6.123 .656-4.346 1.667-2.292 2.171 .035 2.171 1.767 2.171 3.338 1.884 4.753 1.309 6.165 .734 7.339-.071 8.276-1.107 9.212-2.139 9.837-3.345 10.156-4.732H7.488C6.988-3.157 6.066-1.972 4.718-1.185 3.374-.394 1.802 0 0 0" fill="#000000"/>
<path transform="matrix(1,0,0,-1,0,288)" d="M451.566 96.02H464.872V93.909H451.566ZM453.62 93.91H451.158V116.80501H453.62Z" fill="#000000"/>
<path transform="matrix(1,0,0,-1,486.6531,182.64331)" d="M0 0C0 1.919-.387 3.601-1.16 5.037-1.937 6.474-3.005 7.602-4.36 8.411-5.715 9.223-7.308 9.627-9.131 9.627-10.933 9.627-12.515 9.223-13.884 8.411-15.254 7.602-16.321 6.474-17.08 5.037-17.847 3.601-18.23 1.919-18.23 0-18.23-1.894-17.847-3.569-17.08-5.02-16.321-6.467-15.254-7.598-13.884-8.407-12.515-9.22-10.933-9.624-9.131-9.624-7.308-9.624-5.715-9.22-4.36-8.407-3.005-7.598-1.937-6.467-1.16-5.02-.387-3.569 0-1.894 0 0M2.533 0C2.533-2.32 2.036-4.367 1.043-6.137 .053-7.907-1.32-9.298-3.076-10.309-4.832-11.323-6.853-11.83-9.131-11.83-11.412-11.83-13.434-11.323-15.201-10.309-16.967-9.298-18.343-7.907-19.322-6.137-20.305-4.367-20.791-2.32-20.791 0-20.791 2.324-20.298 4.374-19.305 6.155-18.312 7.935-16.939 9.333-15.183 10.344-13.427 11.355-11.412 11.866-9.131 11.866-6.829 11.866-4.803 11.355-3.058 10.344-1.316 9.333 .053 7.935 1.043 6.155 2.036 4.374 2.533 2.324 2.533 0" fill="#000000"/>
<path transform="matrix(1,0,0,-1,503.1395,183.6342)" d="M0 0H-7.627V2.015H-.238C1.309 2.015 2.501 2.394 3.331 3.15 4.168 3.909 4.583 4.966 4.583 6.332 4.583 7.613 4.14 8.609 3.249 9.322 2.359 10.035 1.096 10.394-.546 10.394H-8.585V12.441H-.514C1.855 12.441 3.721 11.908 5.08 10.858 6.435 9.801 7.112 8.354 7.112 6.524 7.112 5.076 6.74 3.874 6.002 2.927 5.261 1.979 4.15 1.288 2.667 .862V1.249C4.31 .862 5.541 .199 6.36-.752 7.18-1.699 7.595-2.93 7.595-4.445 7.595-5.658 7.286-6.722 6.669-7.623 6.052-8.531 5.176-9.23 4.037-9.72 2.895-10.209 1.55-10.454 0-10.454H-8.585V-8.375H0C1.596-8.375 2.845-8.003 3.746-7.258 4.647-6.513 5.097-5.477 5.097-4.158 5.097-2.856 4.647-1.841 3.746-1.103 2.845-.369 1.596 0 0 0M-7.013-10.454H-9.475V12.441H-7.013Z" fill="#000000"/>
<path transform="matrix(1,0,0,-1,522.5321,174.4263)" d="M0 0-4.548-11.575H5.2L.617 0C.568 .174 .514 .344 .443 .514 .376 .681 .33 .819 .309 .929 .284 .819 .245 .678 .188 .5 .131 .316 .071 .149 0 0M-7.694-19.663H-10.192L-1.199 3.232H1.848L10.943-19.663H8.379L5.984-13.586H-5.3Z" fill="#000000"/>
<path transform="matrix(1,0,0,-1,0,288)" d="M537.305 96.02H550.608V93.909H537.305ZM539.359 93.91H536.89706V116.80501H539.359Z" fill="#000000"/>
<path transform="matrix(1,0,0,-1,562.3082,177.14209)" d="M0 0C0 1.277 .34 2.394 1.025 3.338 1.706 4.289 2.667 5.03 3.899 5.562 5.129 6.098 6.566 6.364 8.205 6.364 9.688 6.364 10.982 6.119 12.089 5.626 13.196 5.137 14.079 4.434 14.739 3.515 15.403 2.6 15.786 1.504 15.899 .223H13.405C13.267 1.504 12.745 2.497 11.834 3.214 10.919 3.927 9.698 4.285 8.173 4.285 6.463 4.285 5.083 3.902 4.037 3.132 2.987 2.366 2.458 1.33 2.458 .032 2.458-.968 2.781-1.799 3.42-2.444 4.058-3.097 5.016-3.572 6.289-3.87L10.5-4.828C12.412-5.254 13.859-5.977 14.842-6.988 15.821-7.999 16.314-9.283 16.314-10.841 16.314-12.139 15.97-13.281 15.289-14.264 14.601-15.243 13.632-15.999 12.38-16.531 11.128-17.066 9.656-17.332 7.967-17.332 6.396-17.332 4.998-17.084 3.778-16.595 2.557-16.105 1.6-15.403 .904-14.484 .209-13.569-.195-12.49-.309-11.256H2.221C2.292-12.473 2.848-13.434 3.899-14.147 4.948-14.863 6.3-15.222 7.967-15.222 9.769-15.222 11.199-14.839 12.26-14.069 13.32-13.303 13.849-12.267 13.849-10.968 13.849-9.926 13.537-9.078 12.912-8.425 12.281-7.776 11.309-7.304 9.982-7.003L5.846-6.045C3.93-5.619 2.476-4.899 1.486-3.888 .496-2.873 0-1.579 0 0" fill="#000000"/>
<path transform="matrix(1,0,0,-1,0,288)" d="M590.111 93.91H587.64907V115.77901H590.111ZM580.125 116.804H597.67V114.693H580.125Z" fill="#000000"/>
<path transform="matrix(1,0,0,-1,606.5287,174.4263)" d="M0 0-4.548-11.575H5.2L.617 0C.568 .174 .514 .344 .443 .514 .376 .681 .33 .819 .309 .929 .284 .819 .245 .678 .188 .5 .131 .316 .071 .149 0 0M-7.694-19.663H-10.192L-1.199 3.232H1.848L10.943-19.663H8.379L5.984-13.586H-5.3Z" fill="#000000"/>
<path transform="matrix(1,0,0,-1,623.3544,194.0892)" d="M0 0H-2.462V22.895H.035L14.09 3.008H13.508V22.895H15.935V0H13.508L-.582 19.886H0Z" fill="#000000"/>
<path transform="matrix(1,0,0,-1,647.739,172.28189)" d="M0 0V-20.72L-1.128-19.698H4.892C6.896-19.698 8.631-19.312 10.089-18.549 11.546-17.779 12.682-16.697 13.494-15.3 14.299-13.906 14.707-12.256 14.707-10.362 14.707-8.464 14.299-6.811 13.494-5.403 12.682-3.998 11.543-2.916 10.071-2.157 8.602-1.405 6.853-1.022 4.821-1.022H-1.128ZM4.991-21.806H-2.462V1.089H4.923C7.385 1.089 9.539 .607 11.387-.355 13.232-1.313 14.672-2.65 15.697-4.363 16.726-6.08 17.236-8.077 17.236-10.362 17.236-12.639 16.729-14.64 15.715-16.353 14.7-18.074 13.274-19.411 11.44-20.369 9.603-21.33 7.456-21.806 4.991-21.806" fill="#000000"/>
<path transform="matrix(1,0,0,-1,676.1594,174.4263)" d="M0 0-4.548-11.575H5.2L.617 0C.571 .174 .514 .344 .447 .514 .376 .681 .333 .819 .309 .929 .287 .819 .245 .678 .191 .5 .131 .316 .071 .149 0 0M-7.694-19.663H-10.192L-1.196 3.232H1.848L10.947-19.663H8.379L5.984-13.586H-5.3Z" fill="#000000"/>
<path transform="matrix(1,0,0,-1,692.9887,173.2727)" d="M0 0V-9.241H6.736C8.425-9.241 9.741-8.826 10.688-7.996 11.632-7.166 12.107-6.034 12.107-4.604 12.107-3.115 11.614-1.972 10.635-1.185 9.656-.394 8.333 0 6.669 0ZM0-20.816H-2.462V2.079H6.669C9.131 2.079 11.075 1.486 12.497 .301 13.923-.88 14.636-2.494 14.636-4.541 14.636-6.183 14.196-7.559 13.32-8.666 12.444-9.777 11.217-10.532 9.645-10.937L14.874-20.816H12.142L7.148-11.32H0Z" fill="#000000"/>
<path transform="matrix(1,0,0,-1,714.8754,172.28189)" d="M0 0V-20.72L-1.128-19.698H4.892C6.896-19.698 8.631-19.312 10.089-18.549 11.546-17.779 12.682-16.697 13.494-15.3 14.299-13.906 14.707-12.256 14.707-10.362 14.707-8.464 14.299-6.811 13.494-5.403 12.682-3.998 11.543-2.916 10.071-2.157 8.602-1.405 6.853-1.022 4.821-1.022H-1.128ZM4.991-21.806H-2.462V1.089H4.923C7.385 1.089 9.539 .607 11.387-.355 13.232-1.313 14.672-2.65 15.697-4.363 16.726-6.08 17.236-8.077 17.236-10.362 17.236-12.639 16.729-14.64 15.715-16.353 14.7-18.074 13.274-19.411 11.44-20.369 9.603-21.33 7.456-21.806 4.991-21.806" fill="#000000"/>
<path transform="matrix(1,0,0,-1,735.0858,177.14209)" d="M0 0C0 1.277 .344 2.394 1.029 3.338 1.71 4.289 2.667 5.03 3.902 5.562 5.129 6.098 6.57 6.364 8.208 6.364 9.691 6.364 10.986 6.119 12.089 5.626 13.199 5.137 14.083 4.434 14.743 3.515 15.403 2.6 15.789 1.504 15.903 .223H13.405C13.271 1.504 12.749 2.497 11.834 3.214 10.922 3.927 9.702 4.285 8.177 4.285 6.463 4.285 5.087 3.902 4.037 3.132 2.99 2.366 2.462 1.33 2.462 .032 2.462-.968 2.781-1.799 3.423-2.444 4.062-3.097 5.016-3.572 6.293-3.87L10.5-4.828C12.416-5.254 13.863-5.977 14.846-6.988 15.825-7.999 16.318-9.283 16.318-10.841 16.318-12.139 15.974-13.281 15.289-14.264 14.604-15.243 13.636-15.999 12.38-16.531 11.128-17.066 9.659-17.332 7.971-17.332 6.399-17.332 4.998-17.084 3.778-16.595 2.561-16.105 1.603-15.403 .908-14.484 .213-13.569-.195-12.49-.305-11.256H2.224C2.292-12.473 2.852-13.434 3.902-14.147 4.952-14.863 6.304-15.222 7.971-15.222 9.773-15.222 11.202-14.839 12.263-14.069 13.324-13.303 13.852-12.267 13.852-10.968 13.852-9.926 13.537-9.078 12.912-8.425 12.284-7.776 11.309-7.304 9.986-7.003L5.85-6.045C3.934-5.619 2.479-4.899 1.49-3.888 .5-2.873 0-1.579 0 0" fill="#000000"/>
<path transform="matrix(1,0,0,-1,757.1456,194.4426)" d="M0 0C-.568 0-1.071 .195-1.504 .578-1.937 .961-2.153 1.419-2.153 1.955-2.153 2.504-1.937 2.98-1.504 3.373-1.071 3.767-.568 3.966 0 3.966 .592 3.966 1.103 3.767 1.525 3.373 1.944 2.98 2.153 2.504 2.153 1.955 2.153 1.419 1.944 .961 1.525 .578 1.103 .195 .592 0 0 0" fill="#000000"/>
<path transform="matrix(1,0,0,-1,0,288)" d="M781.494 93.91H779.03207V115.77901H781.494ZM771.508 116.804H789.053V114.693H771.508Z" fill="#000000"/>
<path transform="matrix(1,0,0,-1,794.9053,173.2727)" d="M0 0V-9.241H6.736C8.425-9.241 9.741-8.826 10.688-7.996 11.632-7.166 12.107-6.034 12.107-4.604 12.107-3.115 11.614-1.972 10.635-1.185 9.656-.394 8.333 0 6.669 0ZM0-20.816H-2.462V2.079H6.669C9.131 2.079 11.075 1.486 12.497 .301 13.923-.88 14.636-2.494 14.636-4.541 14.636-6.183 14.196-7.559 13.32-8.666 12.444-9.777 11.217-10.532 9.645-10.937L14.874-20.816H12.142L7.148-11.32H0Z" fill="#000000"/>
<path transform="matrix(1,0,0,-1,814.0244,186.1283)" d="M0 0V14.934H2.458V.096C2.458-1.905 3.029-3.445 4.172-4.509 5.31-5.573 6.953-6.109 9.095-6.109 11.171-6.109 12.781-5.566 13.92-4.495 15.058-3.416 15.626-1.884 15.626 .096V14.934H18.091V0C18.091-1.724 17.733-3.21 17.013-4.459 16.297-5.704 15.264-6.666 13.92-7.336 12.572-8.01 10.965-8.347 9.095-8.347 7.201-8.347 5.576-8.013 4.221-7.354 2.866-6.694 1.823-5.733 1.093-4.477 .365-3.217 0-1.724 0 0" fill="#000000"/>
<path transform="matrix(1,0,0,-1,836.4238,177.14209)" d="M0 0C0 1.277 .344 2.394 1.029 3.338 1.71 4.289 2.667 5.03 3.902 5.562 5.129 6.098 6.57 6.364 8.208 6.364 9.691 6.364 10.986 6.119 12.089 5.626 13.2 5.137 14.083 4.434 14.743 3.515 15.403 2.6 15.789 1.504 15.903 .223H13.405C13.271 1.504 12.749 2.497 11.834 3.214 10.922 3.927 9.702 4.285 8.177 4.285 6.463 4.285 5.087 3.902 4.037 3.132 2.99 2.366 2.462 1.33 2.462 .032 2.462-.968 2.781-1.799 3.423-2.444 4.062-3.097 5.016-3.572 6.293-3.87L10.5-4.828C12.416-5.254 13.863-5.977 14.846-6.988 15.825-7.999 16.318-9.283 16.318-10.841 16.318-12.139 15.974-13.281 15.289-14.264 14.604-15.243 13.636-15.999 12.38-16.531 11.128-17.066 9.659-17.332 7.971-17.332 6.399-17.332 4.998-17.084 3.778-16.595 2.561-16.105 1.603-15.403 .908-14.484 .213-13.569-.195-12.49-.305-11.256H2.224C2.292-12.473 2.852-13.434 3.902-14.147 4.952-14.863 6.304-15.222 7.971-15.222 9.773-15.222 11.202-14.839 12.263-14.069 13.324-13.303 13.852-12.267 13.852-10.968 13.852-9.926 13.537-9.078 12.912-8.425 12.284-7.776 11.309-7.304 9.986-7.003L5.85-6.045C3.934-5.619 2.48-4.899 1.49-3.888 .5-2.873 0-1.579 0 0" fill="#000000"/>
<path transform="matrix(1,0,0,-1,0,288)" d="M864.229 93.91H861.767V115.77901H864.229ZM854.24 116.804H871.785V114.693H854.24Z" fill="#000000"/>
<path transform="matrix(1,0,0,-1,889.8456,194.0892)" d="M0 0H-14.672V22.895H-.036V20.784H-13.75L-12.207 22.029V12.533H-1.16V10.454H-12.207V.862L-13.75 2.111H0Z" fill="#000000"/>
<path transform="matrix(1,0,0,-1,897.3007,172.28189)" d="M0 0V-20.72L-1.128-19.698H4.892C6.896-19.698 8.631-19.312 10.089-18.549 11.546-17.779 12.682-16.697 13.494-15.3 14.299-13.906 14.707-12.256 14.707-10.362 14.707-8.464 14.299-6.811 13.494-5.403 12.682-3.998 11.543-2.916 10.071-2.157 8.602-1.405 6.853-1.022 4.821-1.022H-1.128ZM4.991-21.806H-2.462V1.089H4.924C7.385 1.089 9.539 .607 11.387-.355 13.232-1.313 14.672-2.65 15.697-4.363 16.726-6.08 17.236-8.077 17.236-10.362 17.236-12.639 16.729-14.64 15.715-16.353 14.7-18.074 13.274-19.411 11.44-20.369 9.603-21.33 7.457-21.806 4.991-21.806" fill="#000000"/>
<path transform="matrix(1,0,0,-1,938.4449,194.4426)" d="M0 0C-2.281 0-4.282 .5-6.002 1.49-7.726 2.48-9.071 3.86-10.039 5.63-11.011 7.4-11.49 9.454-11.49 11.798-11.49 14.143-11.004 16.208-10.021 17.985-9.042 19.766-7.673 21.153-5.917 22.143-4.161 23.132-2.143 23.629 .135 23.629 1.915 23.629 3.522 23.32 4.956 22.703 6.396 22.086 7.605 21.217 8.584 20.099 9.564 18.978 10.213 17.652 10.536 16.116H7.9C7.375 17.779 6.417 19.081 5.027 20.018 3.632 20.954 1.972 21.426 .035 21.426-1.745 21.426-3.313 21.025-4.668 20.223-6.027 19.429-7.073 18.308-7.815 16.868-8.556 15.431-8.929 13.739-8.929 11.798-8.929 9.904-8.549 8.23-7.797 6.779-7.045 5.332-5.995 4.207-4.654 3.405-3.31 2.607-1.745 2.206 .035 2.206 1.972 2.206 3.657 2.668 5.097 3.583 6.53 4.502 7.51 5.711 8.038 7.226H10.67C10.305 5.8 9.617 4.541 8.602 3.455 7.588 2.366 6.335 1.522 4.856 .915 3.373 .305 1.752 0 0 0" fill="#000000"/>
<path transform="matrix(1,0,0,-1,968.0602,194.0892)" d="M0 0H-14.672V22.895H-.036V20.784H-13.75L-12.207 22.029V12.533H-1.16V10.454H-12.207V.862L-13.75 2.111H0Z" fill="#000000"/>
<path transform="matrix(1,0,0,-1,975.5189,173.2727)" d="M0 0V-9.241H6.736C8.425-9.241 9.741-8.826 10.688-7.996 11.632-7.166 12.107-6.034 12.107-4.604 12.107-3.115 11.614-1.972 10.635-1.185 9.656-.394 8.333 0 6.669 0ZM0-20.816H-2.462V2.079H6.669C9.131 2.079 11.075 1.486 12.497 .301 13.923-.88 14.636-2.494 14.636-4.541 14.636-6.183 14.196-7.559 13.32-8.666 12.444-9.777 11.217-10.532 9.645-10.937L14.874-20.816H12.143L7.148-11.32H0Z" fill="#000000"/>
<path transform="matrix(1,0,0,-1,0,288)" d="M1002.022 93.91H999.56V115.77901H1002.022ZM992.036 116.804H1009.581V114.693H992.036Z" fill="#000000"/>
<path transform="matrix(1,0,0,-1,0,288)" d="M1015.431 93.91H1012.96908V116.80501H1015.431Z" fill="#000000"/>
<path transform="matrix(1,0,0,-1,0,288)" d="M1033.863 103.981H1021.486V106.060009H1033.863ZM1035.814 114.697H1021.48599V116.808H1035.814ZM1023.846 93.91H1021.38406V116.80501H1023.846Z" fill="#000000"/>
<path transform="matrix(1,0,0,-1,0,288)" d="M1042.416 93.91H1039.954V116.80501H1042.416Z" fill="#000000"/>
<path transform="matrix(1,0,0,-1,1058.3518,194.4426)" d="M0 0C-2.281 0-4.282 .5-6.002 1.49-7.726 2.48-9.071 3.86-10.039 5.63-11.011 7.4-11.49 9.454-11.49 11.798-11.49 14.143-11.004 16.208-10.021 17.985-9.042 19.766-7.673 21.153-5.917 22.143-4.161 23.132-2.143 23.629 .135 23.629 1.915 23.629 3.522 23.32 4.956 22.703 6.396 22.086 7.605 21.217 8.584 20.099 9.564 18.978 10.213 17.652 10.536 16.116H7.9C7.375 17.779 6.417 19.081 5.026 20.018 3.632 20.954 1.972 21.426 .035 21.426-1.745 21.426-3.313 21.025-4.668 20.223-6.027 19.429-7.073 18.308-7.815 16.868-8.556 15.431-8.929 13.739-8.929 11.798-8.929 9.904-8.549 8.23-7.797 6.779-7.045 5.332-5.995 4.207-4.654 3.405-3.31 2.607-1.745 2.206 .035 2.206 1.972 2.206 3.657 2.668 5.097 3.583 6.53 4.502 7.51 5.711 8.038 7.226H10.67C10.305 5.8 9.617 4.541 8.602 3.455 7.588 2.366 6.335 1.522 4.856 .915 3.373 .305 1.752 0 0 0" fill="#000000"/>
<path transform="matrix(1,0,0,-1,1080.2037,174.4263)" d="M0 0-4.548-11.575H5.2L.617 0C.571 .174 .514 .344 .447 .514 .376 .681 .333 .819 .309 .929 .287 .819 .245 .678 .191 .5 .131 .316 .071 .149 0 0M-7.694-19.663H-10.192L-1.196 3.232H1.848L10.947-19.663H8.379L5.984-13.586H-5.3Z" fill="#000000"/>
<path transform="matrix(1,0,0,-1,0,288)" d="M1099.766 93.91H1097.304V115.77901H1099.766ZM1089.78 116.804H1107.3251V114.693H1089.78Z" fill="#000000"/>
<path transform="matrix(1,0,0,-1,0,288)" d="M1113.175 93.91H1110.713V116.80501H1113.175Z" fill="#000000"/>
<path transform="matrix(1,0,0,-1,1138.4164,182.64331)" d="M0 0C0 1.919-.387 3.601-1.164 5.037-1.937 6.474-3.005 7.602-4.36 8.411-5.715 9.223-7.308 9.627-9.131 9.627-10.933 9.627-12.515 9.223-13.884 8.411-15.254 7.602-16.321 6.474-17.081 5.037-17.847 3.601-18.23 1.919-18.23 0-18.23-1.894-17.847-3.569-17.081-5.02-16.321-6.467-15.254-7.598-13.884-8.407-12.515-9.22-10.933-9.624-9.131-9.624-7.308-9.624-5.715-9.22-4.36-8.407-3.005-7.598-1.937-6.467-1.164-5.02-.387-3.569 0-1.894 0 0M2.533 0C2.533-2.32 2.036-4.367 1.043-6.137 .053-7.907-1.323-9.298-3.076-10.309-4.832-11.323-6.854-11.83-9.131-11.83-11.412-11.83-13.434-11.323-15.201-10.309-16.967-9.298-18.344-7.907-19.323-6.137-20.305-4.367-20.791-2.32-20.791 0-20.791 2.324-20.298 4.374-19.305 6.155-18.315 7.935-16.939 9.333-15.183 10.344-13.43 11.355-11.412 11.866-9.131 11.866-6.829 11.866-4.803 11.355-3.058 10.344-1.316 9.333 .053 7.935 1.043 6.155 2.036 4.374 2.533 2.324 2.533 0" fill="#000000"/>
<path transform="matrix(1,0,0,-1,1147.8911,194.0892)" d="M0 0H-2.462V22.895H.035L14.09 3.008H13.508V22.895H15.935V0H13.508L-.582 19.886H0Z" fill="#000000"/>
<path transform="matrix(1,0,0,-1,887.2266,93.2999)" d="M0 0C-1.55 3.643-5.126 6.006-9.085 6.006-13.044 6.006-16.62 3.643-18.17 0L-43.196-58.812H-28.759L-25.02-49.638-17.794-31.873H-17.818L-10.422-13.817C-10-12.785-8.539-12.785-8.116-13.817L-2.494-27.535-.717-31.873H-.734L5.856-48.106 10.223-58.812H25.026Z" fill="#000000"/>
<path transform="matrix(1,0,0,-1,710.8796,93.2999)" d="M0 0C-1.55 3.643-5.126 6.006-9.085 6.006-13.044 6.006-16.62 3.643-18.17 0L-43.196-58.812H-28.759L-25.02-49.638-17.794-31.873H-17.818L-10.422-13.817C-10-12.785-8.539-12.785-8.116-13.817L-2.494-27.535-.717-31.873H-.734L5.857-48.106 10.223-58.812H25.027Z" fill="#000000"/>
</g>
</g>
</svg>
